{
  "asset": { "generator": "3D Builder", "version": "2.0" },
  "scene": 0,
  "scenes": [{ "nodes": [0] }],
  "nodes": [
    { "children": [1] },
    {
      "mesh": 0,
      "matrix": [
        1, 0, 0, 0,
        0, 1, 0, 0,
        0, 0, 1, 0,
        0.215, -0.162, -0.234, 1
      ]
    }
  ],
  "meshes": [
    {
      "primitives": [
        {
          "attributes": { "POSITION": 0, "COLOR_0": 1 },
          "mode": 4,
          "indices": 2,
          "material": 0
        }
      ]
    }
  ],
  "accessors": [
    {
      "bufferView": 0,
      "byteOffset": 0,
      "count": 1885,
      "componentType": 5126,
      "type": "VEC3",
      "min": [-0.27515003085136414, 0.13520599901676178, 0.16252799332141876],
      "max": [-0.15418601036071777, 0.30693399906158447, 0.28624597191810608]
    },
    {
      "bufferView": 1,
      "byteOffset": 0,
      "count": 1885,
      "componentType": 5121,
      "type": "VEC4",
      "normalized": true
    },
    {
      "bufferView": 2,
      "byteOffset": 0,
      "count": 12018,
      "componentType": 5125,
      "type": "SCALAR"
    },
    {
      "bufferView": 3,
      "byteOffset": 0,
      "count": 6,
      "componentType": 5126,
      "type": "VEC3",
      "min": [-0.22124402225017548, 0.16859599947929382, 0.19688799977302551],
      "max": [-0.22083002328872681, 0.1691419929265976, 0.19734400510787964]
    },
    {
      "bufferView": 4,
      "byteOffset": 0,
      "count": 6,
      "componentType": 5121,
      "type": "VEC4",
      "normalized": true
    },
    {
      "bufferView": 5,
      "byteOffset": 0,
      "count": 24,
      "componentType": 5125,
      "type": "SCALAR"
    },
    {
      "bufferView": 6,
      "byteOffset": 0,
      "count": 6,
      "componentType": 5126,
      "type": "VEC3",
      "min": [-0.25607001781463623, 0.24628400802612305, 0.18976600468158722],
      "max": [-0.25562202930450439, 0.24671199917793274, 0.19051599502563477]
    },
    {
      "bufferView": 7,
      "byteOffset": 0,
      "count": 6,
      "componentType": 5121,
      "type": "VEC4",
      "normalized": true
    },
    {
      "bufferView": 8,
      "byteOffset": 0,
      "count": 24,
      "componentType": 5125,
      "type": "SCALAR"
    },
    {
      "bufferView": 9,
      "byteOffset": 0,
      "count": 9,
      "componentType": 5126,
      "type": "VEC3",
      "min": [-0.23745201528072357, 0.22560399770736694, 0.24448399245738983],
      "max": [-0.23722802102565765, 0.22698400914669037, 0.24471800029277802]
    },
    {
      "bufferView": 10,
      "byteOffset": 0,
      "count": 9,
      "componentType": 5121,
      "type": "VEC4",
      "normalized": true
    },
    {
      "bufferView": 11,
      "byteOffset": 0,
      "count": 42,
      "componentType": 5125,
      "type": "SCALAR"
    },
    {
      "bufferView": 12,
      "byteOffset": 0,
      "count": 6,
      "componentType": 5126,
      "type": "VEC3",
      "min": [-0.24556402862071991, 0.20793400704860687, 0.2233939915895462],
      "max": [-0.24497802555561066, 0.20860600471496582, 0.22395201027393341]
    },
    {
      "bufferView": 13,
      "byteOffset": 0,
      "count": 6,
      "componentType": 5121,
      "type": "VEC4",
      "normalized": true
    },
    {
      "bufferView": 14,
      "byteOffset": 0,
      "count": 24,
      "componentType": 5125,
      "type": "SCALAR"
    }
  ],
  "bufferViews": [
    {
      "buffer": 0,
      "byteOffset": 0,
      "byteLength": 22620,
      "byteStride": 12,
      "target": 34962
    },
    {
      "buffer": 0,
      "byteOffset": 22620,
      "byteLength": 7540,
      "byteStride": 4,
      "target": 34962
    },
    { "buffer": 0, "byteOffset": 30160, "byteLength": 48072, "target": 34963 },
    {
      "buffer": 0,
      "byteOffset": 78232,
      "byteLength": 72,
      "byteStride": 12,
      "target": 34962
    },
    {
      "buffer": 0,
      "byteOffset": 78304,
      "byteLength": 24,
      "byteStride": 4,
      "target": 34962
    },
    { "buffer": 0, "byteOffset": 78328, "byteLength": 96, "target": 34963 },
    {
      "buffer": 0,
      "byteOffset": 78424,
      "byteLength": 72,
      "byteStride": 12,
      "target": 34962
    },
    {
      "buffer": 0,
      "byteOffset": 78496,
      "byteLength": 24,
      "byteStride": 4,
      "target": 34962
    },
    { "buffer": 0, "byteOffset": 78520, "byteLength": 96, "target": 34963 },
    {
      "buffer": 0,
      "byteOffset": 78616,
      "byteLength": 108,
      "byteStride": 12,
      "target": 34962
    },
    {
      "buffer": 0,
      "byteOffset": 78724,
      "byteLength": 36,
      "byteStride": 4,
      "target": 34962
    },
    { "buffer": 0, "byteOffset": 78760, "byteLength": 168, "target": 34963 },
    {
      "buffer": 0,
      "byteOffset": 78928,
      "byteLength": 72,
      "byteStride": 12,
      "target": 34962
    },
    {
      "buffer": 0,
      "byteOffset": 79000,
      "byteLength": 24,
      "byteStride": 4,
      "target": 34962
    },
    { "buffer": 0, "byteOffset": 79024, "byteLength": 96, "target": 34963 }
  ],
  "buffers": [{ "byteLength": 79120, "uri": "PDB-6VSB-surf.bin" }],
  "materials": [
    {
      "pbrMetallicRoughness": {
        "baseColorFactor": [1, 1, 0, 0.87],
        "metallicFactor": 0.1,
        "roughnessFactor": 0.9
      }
    }
  ]
}
